<?xml version="1.0" encoding="UTF-8" standalone="no"?>
<!-- Created with Inkscape (http://www.inkscape.org/) -->

<svg
   xmlns:dc="http://purl.org/dc/elements/1.1/"
   xmlns:cc="http://creativecommons.org/ns#"
   xmlns:rdf="http://www.w3.org/1999/02/22-rdf-syntax-ns#"
   xmlns:svg="http://www.w3.org/2000/svg"
   xmlns="http://www.w3.org/2000/svg"
   xmlns:sodipodi="http://sodipodi.sourceforge.net/DTD/sodipodi-0.dtd"
   xmlns:inkscape="http://www.inkscape.org/namespaces/inkscape"
   id="svg2"
   sodipodi:version="0.32"
   inkscape:version="0.48.4 r9939"
   width="512"
   height="512"
   version="1.0"
   sodipodi:docname="gringer_Baby_silhouette.svg"
   inkscape:output_extension="org.inkscape.output.svg.inkscape">
  <title
     id="title2842">Baby silhouette</title>
  <defs
     id="defs6">
    <inkscape:perspective
       sodipodi:type="inkscape:persp3d"
       inkscape:vp_x="0 : 0.5 : 1"
       inkscape:vp_y="0 : 1000 : 0"
       inkscape:vp_z="1 : 0.5 : 1"
       inkscape:persp3d-origin="0.5 : 0.33333333 : 1"
       id="perspective10" />
  </defs>
  <sodipodi:namedview
     pagecolor="#ffffff"
     bordercolor="#666666"
     borderopacity="1"
     objecttolerance="10"
     gridtolerance="10"
     guidetolerance="10"
     inkscape:pageopacity="0"
     inkscape:pageshadow="2"
     inkscape:window-width="1366"
     inkscape:window-height="747"
     id="namedview4"
     showgrid="false"
     inkscape:zoom="0.73697917"
     inkscape:cx="481"
     inkscape:cy="275.44876"
     inkscape:window-x="0"
     inkscape:window-y="0"
     inkscape:current-layer="svg2"
     inkscape:window-maximized="1" />
  <path
     style="fill:#000000"
     d="m 264.90363,442.35623 c -2.87645,-1.18264 -4.21757,-5.06363 -7.04191,-5.74646 -8.00984,-0.46318 -16.29093,0.006 -23.76566,-3.458 -5.99453,-1.91278 -12.21902,-4.48632 -15.63484,-10.12874 -3.88669,-2.72608 -4.22281,-13.04413 -9.72764,-10.50434 -7.18086,3.70045 -15.49503,6.18093 -23.51985,3.85172 -10.71071,-2.61132 -21.08007,-6.82079 -30.68036,-12.22648 -9.71378,-6.10906 -18.39499,-13.74626 -28.20398,-19.69478 -6.30885,-1.10127 -4.30625,8.47079 -6.27571,12.30111 -1.90596,5.66684 -6.81565,9.75814 -8.00897,15.77288 -3.24602,3.61079 -8.75148,5.31053 -13.584626,4.85632 -5.348488,-1.42979 -9.276945,4.54296 -14.451169,5.67478 -7.498641,3.8042 -16.241142,3.89427 -24.369503,2.64206 -6.163695,-1.96014 -10.588289,-7.03346 -16.498213,-9.49449 -6.303418,-6.04086 -9.48131,-14.32354 -13.078677,-22.08938 -2.373819,2.17879 -5.366569,5.75547 -8.804021,3.30255 -4.360562,-2.67627 -0.174343,-8.82821 -4.507677,-11.33907 -2.535307,-3.97639 -5.976116,-7.35915 -8.0940842,-11.86741 -3.4169391,-3.52982 -1.7631305,-8.78162 -2.1499604,-13.21201 0.1294071,-2.53923 -0.2532766,-5.23659 0.1807702,-7.68169 3.6526874,-5.9115 8.5969634,-10.82906 13.1055364,-16.05218 2.882502,-5.02072 5.095329,-10.37851 7.45329,-15.61846 3.331302,-5.48805 5.563378,-13.04408 12.285884,-15.25652 7.879868,-1.4735 13.77219,6.4926 15.658888,13.22804 1.036921,3.03816 2.865836,5.68765 4.645826,8.32468 3.575858,-13.77673 7.849936,-27.42811 14.130831,-40.23807 2.369327,-5.7866 3.56551,-12.09329 7.395557,-17.21995 4.230577,-7.24482 10.903957,-12.35954 17.173618,-17.70212 11.8883,-10.9356 27.89108,-15.05058 42.67135,-20.50998 5.98731,-1.92799 11.89845,-4.2973 18.1036,-5.41371 2.71278,0.0613 4.66158,3.32537 7.26611,1.18725 20.8648,-8.06474 41.88424,-15.84168 62.10897,-25.4254 9.96852,-5.61773 19.05659,-12.78405 29.33149,-17.83464 4.69242,-3.05097 14.01839,-1.06052 13.89586,-8.68087 1.54315,-5.07475 -0.41171,-10.14294 -3.94789,-13.46544 -3.85542,-7.96058 -7.91254,-16.04584 -8.80905,-24.99126 -1.58017,-13.80285 -0.0944,-28.07423 4.40612,-41.219142 2.5014,-5.104467 0.58104,-11.149592 4.42456,-15.658184 4.00624,-7.490165 9.41093,-15.168527 17.47851,-18.593497 10.15079,-3.087657 17.69739,-11.764498 28.24533,-13.965611 11.58227,-4.314195 24.15546,-4.171145 36.33161,-3.872068 6.07138,1.663053 12.73161,1.19885 18.42837,4.048463 6.37667,2.954931 12.68509,6.356769 19.60851,7.832582 4.6348,1.655552 10.5432,3.037366 14.48165,6.884833 5.74851,4.78598 12.21105,8.80388 17.60226,13.955429 5.70368,5.742908 9.34265,13.030865 13.82903,19.699616 3.25817,4.604129 5.68825,9.664979 6.46547,15.204639 0.61033,6.85156 0.015,13.7303 -2.09249,20.29387 -1.16107,5.67221 -3.73207,11.19342 -3.68392,17.02162 2.0392,3.21478 -5.61421,7.95991 0.58273,9.89501 3.03357,3.58294 -6.74097,2.34478 -4.66941,7.40672 -3.63845,5.28045 1.59509,9.89467 4.31269,14.09275 4.56345,5.29736 -0.36479,9.64898 -5.25513,11.47062 -2.66428,4.76908 -4.06906,11.467 -11.14404,11.8749 -5.1407,1.1957 -13.12782,2.07138 -9.77609,9.42454 2.63055,2.8056 5.47245,10.02755 -0.28885,10.74161 -3.50686,-0.66837 -8.09321,-0.58011 -9.19833,3.72794 -3.43487,5.73335 2.06623,10.27819 4.5084,15.00399 5.07968,8.82958 5.48719,19.3785 10.26873,28.31559 7.23666,14.14393 13.61066,28.93074 23.21855,41.68148 5.04586,6.00532 12.16732,10.27279 15.46492,17.68795 5.91361,11.37173 9.39518,23.73314 13.26326,35.88434 3.64249,9.20739 6.50249,19.12678 12.91326,26.8715 3.96599,4.97335 10.96415,4.37193 16.42676,6.57959 5.32203,1.90469 15.89286,10.97412 11.45183,13.41139 -2.02169,1.10946 -3.69419,-1.29914 -4.8903,-0.1879 -2.59774,2.41344 1.40891,1.99041 -0.74923,3.7662 -2.32951,1.91682 -12.06847,0.12158 -18.22359,1.07966 -7.98992,-0.17478 -15.3861,-3.83788 -23.40026,-3.99421 -3.982,-0.42264 -7.95315,-0.9381 -11.92372,-1.45522 -3.0939,3.80923 -6.03219,8.60676 -11.47315,8.93689 -3.42263,1.97374 -10.04957,-1.62374 -5.04428,-4.73638 4.77674,-5.08866 -1.6856,-10.14045 -1.21135,-15.59528 -0.75451,-2.48561 3.0233,-5.56205 0.38814,-7.22924 -7.81974,-6.77987 -13.40165,-15.62317 -20.71125,-22.90439 -5.94295,-6.1504 -9.95561,-13.74727 -13.39735,-21.48641 -2.71821,-4.20573 -8.04735,-6.02455 -10.55073,-10.52821 -8.62414,-14.0712 -8.47783,-31.6111 -16.78778,-45.85829 -1.87049,-3.07258 -3.43729,-9.69026 -7.35887,-4.6458 -12.67921,8.52119 -21.46116,21.95587 -35.34453,28.79468 -7.93536,4.13046 -16.27152,7.75789 -22.91923,13.91422 -9.19032,7.23538 -17.66679,15.55718 -27.89139,21.3516 -6.93531,4.04875 -14.6359,6.37886 -22.24277,8.74824 0.6041,8.75155 2.51769,17.36341 3.8449,26.03095 2.98708,5.98604 5.97409,11.97216 8.96107,17.95821 12.92146,-0.22978 25.76576,2.00509 38.3717,4.61679 5.25655,1.86628 11.37507,4.87648 13.42141,10.37002 2.05377,4.40735 5.91535,12.12316 -1.69283,12.68491 -4.21552,6.2601 -9.78388,-2.10112 -13.36419,-4.83526 -4.59244,-0.52748 3.50303,8.31937 -2.89233,9.22071 -5.99732,1.36536 -9.28164,-5.7259 -14.81106,-5.17399 -4.32646,0.40048 -8.46738,1.76668 -12.63583,2.90928 -0.11424,3.07952 1.6653,8.14201 -2.51047,8.98118 -1.76262,0.11432 -3.39384,-0.79085 -4.81881,-1.72537 z"
     id="path2818"
     sodipodi:nodetypes="ccccccccccccccccccccccccccccccccccccccccccccccccccccccccccccccccsssccccccccccccccccccccccccccc"
     inkscape:connector-curvature="0" />
  <metadata
     id="metadata8">
    <rdf:RDF>
      <cc:Work>
        <dc:format>image/svg+xml</dc:format>
        <dc:type
           rdf:resource="http://purl.org/dc/dcmitype/StillImage" />
        <cc:license
           rdf:resource="http://creativecommons.org/licenses/publicdomain/" />
        <dc:publisher>
          <cc:Agent
             rdf:about="http://openclipart.org/">
            <dc:title>Open Clip Art Library</dc:title>
          </cc:Agent>
        </dc:publisher>
        <dc:title>Baby silhouette</dc:title>
        <dc:date>2009-12-22T10:24:56</dc:date>
        <dc:description>Silhouette of baby_01 by kotik, edges filled in with Gimp, converted to all black, then traced and cleaned up slightly in Inkscape</dc:description>
        <dc:source>http://openclipart.org/detail/28709/baby-silhouette-by-gringer</dc:source>
        <dc:creator>
          <cc:Agent>
            <dc:title>gringer</dc:title>
          </cc:Agent>
        </dc:creator>
        <dc:subject>
          <rdf:Bag>
            <rdf:li>awe</rdf:li>
            <rdf:li>baby</rdf:li>
            <rdf:li>black</rdf:li>
            <rdf:li>black and white</rdf:li>
            <rdf:li>child</rdf:li>
            <rdf:li>clip art</rdf:li>
            <rdf:li>clipart</rdf:li>
            <rdf:li>crawling</rdf:li>
            <rdf:li>emotion</rdf:li>
            <rdf:li>image</rdf:li>
            <rdf:li>infant</rdf:li>
            <rdf:li>media</rdf:li>
            <rdf:li>outline</rdf:li>
            <rdf:li>png</rdf:li>
            <rdf:li>public domain</rdf:li>
            <rdf:li>remix</rdf:li>
            <rdf:li>shadow</rdf:li>
            <rdf:li>silhouette</rdf:li>
            <rdf:li>svg</rdf:li>
          </rdf:Bag>
        </dc:subject>
      </cc:Work>
      <cc:License
         rdf:about="http://creativecommons.org/licenses/publicdomain/">
        <cc:permits
           rdf:resource="http://creativecommons.org/ns#Reproduction" />
        <cc:permits
           rdf:resource="http://creativecommons.org/ns#Distribution" />
        <cc:permits
           rdf:resource="http://creativecommons.org/ns#DerivativeWorks" />
      </cc:License>
    </rdf:RDF>
  </metadata>
</svg>
